inDegrees=yes
name=ik_S46_A04_T01
DataType=double
version=3
OpenSimVersion=4.3-2021-08-27-4bc7ad9
endheader
time	pelvis_tilt	pelvis_list	pelvis_rotation	pelvis_tx	pelvis_ty	pelvis_tz	hip_flexion_r	hip_adduction_r	hip_rotation_r	knee_angle_r	knee_angle_r_beta	ankle_angle_r	subtalar_angle_r	mtp_angle_r	hip_flexion_l	hip_adduction_l	hip_rotation_l	knee_angle_l	knee_angle_l_beta	ankle_angle_l	subtalar_angle_l	mtp_angle_l	lumbar_extension	lumbar_bending	lumbar_rotation	arm_flex_r	arm_add_r	arm_rot_r	elbow_flex_r	pro_sup_r	wrist_flex_r	wrist_dev_r	arm_flex_l	arm_add_l	arm_rot_l	elbow_flex_l	pro_sup_l	wrist_flex_l	wrist_dev_l
0	0	0	0	0	0.9399999999999999	0	0	0	0	0	0	0	0	0	0	0	0	0	0	0	0	0	0	0	0	0	0	0	0	89.99999999963507	0	0	0	0	0	0	89.99999999869995	0	0
0.02	18.99562950100451	7.515079682249816	31.47764706749728	0	0.9399999999999999	0	46.77871055860085	-29.12742538029089	-3.172981053139623	75.53886831127747	1.318401965262201	0	0	0	49.84889332138884	-8.015496324418431	-10.55744949011898	76.1662523346622	1.329351882144673	0	0	0	0	0	0	2.305297946157888	-2.30529794615789	0.4158605264090275	12.13518973083583	89.58413949771628	0	0	2.305297946157888	-2.30529794615789	0.4158605264090275	12.13518973083583	89.58413949685928	0	0
0.04	19.02356205145231	7.516470502486477	31.47310683175107	0	0.9399999999999999	0	46.70720237453617	-29.1194895494982	-3.225766757145156	75.43125837990391	1.316523817651887	0	0	0	49.77815794765692	-8.029945725743616	-10.56939249157078	76.01574252495067	1.326724990408657	0	0	0	0	0	0	2.589129421826397	-2.589129421826399	0.4694794631377951	13.24869712605797	89.53052056416281	0	0	2.589129421826397	-2.589129421826399	0.4694794631377951	13.24869712605797	89.53052056331579	0	0
0.06	19.01888968067167	7.502931616725941	31.48382006493679	0	0.9399999999999999	0	46.76217779782916	-29.11577051995936	-3.202567207310338	75.55053277117115	1.318605548492812	0	0	0	49.82222226853065	-8.036767096223864	-10.54800726601994	76.14270836864831	1.328940962418753	0	0	0	0	0	0	2.873387037955852	-2.873387037955854	0.5230103073995628	14.36178330771783	89.47698972306826	0	0	2.873387037955852	-2.873387037955854	0.5230103073995628	14.36178330771783	89.47698972223107	0	0
0.08	18.99055839290694	7.515575619749275	31.52806828000369	0	0.9399999999999999	0	46.76009413317836	-29.17153172770785	-3.22653009136981	75.50534879710011	1.317816939376137	0	0	0	49.81996141503402	-7.987765257288846	-10.55997379960796	76.07850847578909	1.327820462908932	0	0	0	0	0	0	3.754475901172532	-3.754475901172534	0.6904932881785272	18.95197471448031	89.30950675222694	0	0	3.754475901172532	-3.754475901172534	0.6904932881785272	18.95197471448031	89.30950675142107	0	0
0.1	19.01890518141298	7.458018982176985	31.4899714740681	0	0.9399999999999999	0	46.71193856927844	-29.0775560013101	-3.286790638567687	75.37305540016105	1.315507984020903	0	0	0	49.80446812596582	-8.053937097205839	-10.52909501262403	75.95058848476964	1.325587837886521	0	0	0	0	0	0	3.980869064279936	-3.980869064279937	0.7327275701120822	19.88053789013933	89.26727247278644	0	0	3.980869064279936	-3.980869064279937	0.7327275701120822	19.88053789013933	89.26727247198851	0	0
0.12	18.99452962631224	7.480306567099809	31.50663986412745	0	0.9399999999999999	0	46.76552078204409	-29.12834362724472	-3.251665691314256	75.52597384799824	1.318176914422701	0	0	0	49.85449731893365	-8.030639507218009	-10.54386082926132	76.14211774594384	1.328930654107923	0	0	0	0	0	0	4.646125295423362	-4.646125295423364	0.85687895659112	23.06094208977608	89.14312109364633	0	0	4.646125295423362	-4.646125295423364	0.85687895659112	23.06094208977608	89.14312109287138	0	0
0.14	18.97297535815162	7.456167208343481	31.5139651251476	0	0.9399999999999999	0	46.78434688624786	-29.11052376516821	-3.266795756268683	75.45187102637333	1.316883576200328	0	0	0	49.87075625373487	-8.028217941559227	-10.528424834866	76.04528195275856	1.32724055068306	0	0	0	0	0	0	4.798054149172858	-4.798054149172859	0.884856194225541	23.65812627579513	89.11514385765793	0	0	4.798054149172858	-4.798054149172859	0.884856194225541	23.65812627579513	89.11514385688858	0	0
0.16	18.9607292717019	7.4677569318089	31.51840781759701	0	0.9399999999999999	0	46.81472534372968	-29.13226284090625	-3.246456805514896	75.53314274485368	1.318302035276564	0	0	0	49.89192824516619	-8.017871849547474	-10.52598200170258	76.13221165240788	1.32875776015971	0	0	0	0	0	0	4.951949327494874	-4.951949327494875	0.9132485255589772	24.27413649616204	89.08675152799623	0	0	4.951949327494874	-4.951949327494875	0.9132485255589772	24.27413649616204	89.08675152723212	0	0
0.18	18.94611782700941	7.450947725836922	31.53039083552655	0	0.9399999999999999	0	46.83257330656804	-29.13714856484219	-3.251408834676707	75.54373712450469	1.31848694208368	0	0	0	49.91907113220887	-8.013844294561842	-10.50919732765374	76.15712437898435	1.329192569264119	0	0	0	0	0	0	5.121500425301043	-5.121500425301044	0.9444561624984614	24.93969785973741	89.05554389289291	0	0	5.121500425301043	-5.121500425301044	0.9444561624984614	24.93969785973741	89.05554389213459	0	0
0.2	18.95781282162325	7.455506876298813	31.52395953593416	0	0.9399999999999999	0	46.82099600851976	-29.13267191668282	-3.251924103648932	75.53185210964321	1.318279509442699	0	0	0	49.90729804485407	-8.020115670687025	-10.50310228926985	76.15905458673798	1.329226257744667	0	0	0	0	0	0	5.296266359008809	-5.296266359008811	0.9764608237109257	25.6069192598119	89.02353923356088	0	0	5.296266359008809	-5.296266359008811	0.9764608237109257	25.6069192598119	89.02353923280845	0	0
0.22	18.96651247056581	7.437279322219548	31.51375982576214	0	0.9399999999999999	0	46.78606737002997	-29.10192156008121	-3.276208314674795	75.43805092833392	1.316642369986592	0	0	0	49.88449509821817	-8.048775027810434	-10.48711475783257	76.06437576114939	1.327573800506225	0	0	0	0	0	0	5.449813473438179	-5.449813473438181	1.004575019787152	26.19185477493919	88.99542503913669	0	0	5.449813473438179	-5.449813473438181	1.004575019787152	26.19185477493919	88.99542503838947	0	0
0.24	18.99451198817736	7.439206277588811	31.53743251733549	0	0.9399999999999999	0	46.77792322364088	-29.11813185296885	-3.287597709875755	75.55221302136933	1.318634874391028	0	0	0	49.87323924010293	-8.025991338405298	-10.44110131888879	76.15933879605214	1.329231218132964	0	0	0	0	0	0	5.777471493136749	-5.777471493136751	1.064274893302925	27.48117482286055	88.93572516912656	0	0	5.777471493136749	-5.777471493136751	1.064274893302925	27.48117482286055	88.93572516839187	0	0
0.26	18.9753512189259	7.442307992138528	31.51966417942723	0	0.9399999999999999	0	46.7723068626354	-29.0940601876886	-3.283852151454795	75.44991875644578	1.316849502662204	0	0	0	49.87759134948187	-8.018871792648188	-10.47776085458798	76.07012360975406	1.327674119389282	0	0	0	0	0	0	5.92620711942513	-5.926207119425132	1.091474950719612	28.06070757137657	88.90852511330799	0	0	5.92620711942513	-5.926207119425132	1.091474950719612	28.06070757137657	88.9085251125787	0	0
0.28	18.95383343518043	7.438225041135735	31.56479292940413	0	0.9399999999999999	0	46.76858278490681	-29.1407381304199	-3.329736094296237	75.42474264828692	1.316410096681994	0	0	0	49.88766194502886	-7.992134024184918	-10.45471876096175	76.03762116100806	1.327106844643704	0	0	0	0	0	0	6.063397590376256	-6.063397590376257	1.11623235832613	28.54591264802129	88.88376770715089	0	0	6.063397590376256	-6.063397590376257	1.11623235832613	28.54591264802129	88.88376770642621	0	0
0.3	18.95230458459947	7.427737396269166	31.54067351770155	0	0.9399999999999999	0	46.77866678074543	-29.11815249523352	-3.323233724478923	75.40161005733202	1.316006356805314	0	0	0	49.87645545907908	-8.020180043887896	-10.46733086243336	76.01945854882013	1.326789847260262	0	0	0	0	0	0	6.189973331345789	-6.189973331345791	1.139249306240851	29.02084746597946	88.8607507605864	0	0	6.189973331345789	-6.189973331345791	1.139249306240851	29.02084746597946	88.86075075986612	0	0
0.32	18.97539168330084	7.403981380070002	31.53220719930804	0	0.9399999999999999	0	46.7514981626885	-29.06864308461812	-3.332033046265273	75.37034853887606	1.315460740379085	0	0	0	49.87383755397051	-8.052026965794118	-10.44549931908558	75.98746809187102	1.326231508457282	0	0	0	0	0	0	6.309504341324332	-6.309504341324334	1.160907106859006	29.45650132768613	88.83909296123748	0	0	6.309504341324332	-6.309504341324334	1.160907106859006	29.45650132768613	88.83909296052126	0	0
0.34	18.98317068472443	7.455958849615326	31.50388265066795	0	0.9399999999999999	0	46.77275101895933	-29.09070485930454	-3.252927739650031	75.50425817519391	1.317797904432979	0	0	0	49.85175840835889	-8.05047243811952	-10.50510172418853	76.13322750647677	1.328775490157932	0	0	0	0	0	0	6.534522375977826	-6.534522375977827	1.201653478640258	30.29244555944334	88.79834659184461	0	0	6.534522375977826	-6.534522375977827	1.201653478640258	30.29244555944334	88.79834659113592	0	0
0.36	18.97131469085309	7.415576431446897	31.52856200288042	0	0.9399999999999999	0	46.78208950008797	-29.08153849144523	-3.301520596704616	75.43728822865278	1.316629058365952	0	0	0	49.88978083269038	-8.044167592136239	-10.44767764143013	76.06407893395975	1.327568619894456	0	0	0	0	0	0	6.653498687002162	-6.653498687002164	1.223082457688621	30.71971836663861	88.77691761405067	0	0	6.653498687002162	-6.653498687002164	1.223082457688621	30.71971836663861	88.77691761334592	0	0
0.3800000000000001	18.97776816899465	7.435875974565509	31.52747140767232	0	0.9399999999999999	0	46.78834741351955	-29.09463735950661	-3.264779701533582	75.50287403376943	1.317773746607809	0	0	0	49.88666805648616	-8.028663967508987	-10.46675199647711	76.13702305725026	1.328841735015856	0	0	0	0	0	0	6.737542901650713	-6.737542901650715	1.238209910129986	31.01846093305582	88.76179016249462	0	0	6.737542901650713	-6.737542901650715	1.238209910129986	31.01846093305582	88.76179016179265	0	0
0.4000000000000001	19.0094891524968	7.428475415816549	31.51548150167323	0	0.9399999999999999	0	46.74726590493525	-29.06542812038499	-3.285824273796425	75.41919121642381	1.316313205917783	0	0	0	49.84874968626531	-8.065162946558027	-10.46141312127608	76.05884704050079	1.327477306127484	0	0	0	0	0	0	6.858781942302852	-6.858781942302855	1.259972224955421	31.44086094269327	88.74002784894164	0	0	6.858781942302852	-6.858781942302855	1.259972224955421	31.44086094269327	88.74002784824373	0	0
0.4200000000000001	19.02021218574301	7.470967642270264	31.52552824521297	0	0.9399999999999999	0	46.72309814029235	-29.10180200425233	-3.260328790449741	75.47274276172958	1.317247856702899	0	0	0	49.81298611947005	-8.023630319906363	-10.48079109807485	76.11859509852788	1.328520106461729	0	0	0	0	0	0	6.989084771650214	-6.989084771650216	1.283240933433545	31.89086276928815	88.71675914182282	0	0	6.989084771650214	-6.989084771650216	1.283240933433545	31.89086276928815	88.71675914112913	0	0
0.4400000000000001	19.03550195957291	7.441292961390299	31.51199919851974	0	0.9399999999999999	0	46.70557342837039	-29.06484467160109	-3.287957042791008	75.40465345509659	1.316059474116754	0	0	0	49.81249180729217	-8.048675137815604	-10.45298716440349	76.05016332313342	1.327325746668111	0	0	0	0	0	0	7.102282539287857	-7.102282539287859	1.303449317469481	32.27656227820775	88.69655075896698	0	0	7.102282539287857	-7.102282539287859	1.303449317469481	32.27656227820775	88.69655075827706	0	0
0.4600000000000001	19.04710913623484	7.444779939251441	31.51140867232722	0	0.9399999999999999	0	46.7168130250535	-29.05059573095155	-3.297776943173907	75.43084256305048	1.316516560278709	0	0	0	49.80615089236288	-8.053020624892355	-10.4385333442929	76.08025684645303	1.327850977733563	0	0	0	0	0	0	7.214040386680844	-7.214040386680848	1.323337358852873	32.65225456637284	88.67666271874415	0	0	7.214040386680844	-7.214040386680848	1.323337358852873	32.65225456637284	88.67666271805795	0	0
0.4800000000000001	19.04116728856278	7.459568436194027	31.51315885596627	0	0.9399999999999999	0	46.75391628146308	-29.05241925347432	-3.256276323399765	75.53491907955133	1.318333038165655	0	0	0	49.82599296147293	-8.032294172961027	-10.41340408249429	76.18592512998291	1.329695237196091	0	0	0	0	0	0	7.30407575391526	-7.304075753915264	1.33935671224978	32.95597848051581	88.66064336628205	0	0	7.30407575391526	-7.304075753915264	1.33935671224978	32.95597848051581	88.66064336559883	0	0
